<svg xmlns="http://www.w3.org/2000/svg" version="1.1" viewBox="311 220 485 505">
<path transform="translate(347,398)" d="m0 0h93v34l-3 5-11 13-4 6v50l5 5 2 1h38l6-3 2-3v-46l-5-5-10-9v-5l15-16 7-8 10-11 7-8h62l-1 6-7 7-7 8-9 10-7 8v3l18 13 1 2v56l-4 8-9 7-23 16-9 6-7 2h-104l-9-3-20-12-11-7-5-8-1-4v-54l3-5 11-10 10-8 5-5h-29z" fill="#020000"/>
<path transform="translate(547,220)" d="m0 0h12l41 21 24 13 16 8 58 30 19 10 27 14 19 10 27 14 5 4v50l-3 4h-10l-28-15-34-18-32-17-22-12-27-14-22-12-25-13-22-12-15-8-5 1-29 15-22 12-25 13-22 12-23 12-22 12-25 13-22 12-27 14-9 5h-10l-3-6v-48l8-5 23-12 27-14 19-10 35-18 19-10 50-26 19-10 27-14zm14 18v22l25 1h17l-3-3-27-14zm-16 0-26 13-16 9v1h17l26-1v-22zm-45 37-18 1v20l4-1 29-15 6-4v-1zm86 0v2l23 12 13 7h2v-20l-18-1zm53 4v22l1 1 27 1h17l-3-3-35-18-5-3zm-173 0-43 22v2h17l27-1 1-1v-21zm198 38 3 3 34 18h1l1-19-1-1-25-1zm-235 0-24 1-1 1v18l5-1 31-16 3-3zm-42 3-33 17-4 4h39l1-1v-9l-1-11zm330 0v21h40l-3-3-33-17zm-393 36 1 23h3l20-10 22-12v-1zm413 0 3 3 29 15 9 5h3l1-9v-14z" fill="#060000"/>
<path transform="translate(314,548)" d="m0 0h12l23 12 22 12 25 13 22 12 23 12 22 12 23 12 22 12 29 15 16 9 16-8 31-16 22-12 68-36 28-15 34-18 28-15 2-1h11l3 5v48l-5 4-60 31-19 10-73 38-27 14-19 10-29 15-4 2h-13l-31-16-19-10-54-28-22-12-28-14-65-34-16-9v-50zm12 18-1 11v13h45v-2l-25-13-16-9zm453 0-34 18-8 5v1h45l1-1-1-23zm-428 38 1 3 35 18h3v-20l-1-1zm367 0-1 5 1 16 5-1 23-12 11-6v-2zm-313 4-1 18 1 1 15 1h23l-4-3-28-15zm295 0-28 15-7 4v1h21l17-1v-19zm-276 34 1 3 41 21h2v-22l-11-1zm255 0-29 1-11 1v16l1 6 6-2 29-15 9-5v-2zm-196 7v20l1 1h38l-5-4-33-17zm140 0-28 15-9 5v1h38l1-1v-20zm-119 36 4 3 29 15 7 4h2v-22zm58 0-1 1v21l6-2 37-19v-1z" fill="#060000"/>
<path transform="translate(650,399)" d="m0 0h39l2 11 7 48 1 4h21l3-5v-32l-2-4-2-1-12-1v-20h44l6 3 4 5 2 7v46l-3 7-12 9-10 7-3 1h-54l-14-8-7-5-3-10-7-56z" fill="#020000"/>
<path transform="translate(566,399)" d="m0 0h62l6 4 4 5 1 3v73h-41l-1-60-4-4-27-1z"/>
<path transform="translate(501,341)" d="m0 0h61v45h-61z"/>
<path transform="translate(655,511)" d="m0 0h45l4 3 1 3v32h-19v-16h-15l2 6 7 1v9h-17l-9-5-1-2v-13l6-4h27l-1-4-30-1z"/>
<path transform="translate(595,511)" d="m0 0h18l1 1v14l8-7 7-8h19l-12 14h8l3 3v21h-18l-1-14-2-1-12-1v16h-19z" fill="#050000"/>
<path transform="translate(715,511)" d="m0 0h44l4 4v34h-18l-1-28-14-1v29h-19v-24l6-4-6-1 1-6z"/>
<path transform="translate(566,511)" d="m0 0h18l1 28 6 1v9h-15l-9-7-2-3v-27z" fill="#0A0000"/>
<path transform="translate(669,492)" d="m0 0h30v7l-22 1-1 2 9-1h13v7l-2 1h-14l-7-3-1 3h-12l-1-1v-10l5-4z" fill="#0E0000"/>
<path transform="translate(466,267)" d="m0 0h2v6l-5 4-22 11-19 10-11 6h-13l3-3 50-26z" fill="#FD0000"/>
<path transform="translate(639,267)" d="m0 0 19 9 27 14 23 12v2h-12l-20-10-19-10-18-10z" fill="#FD0000"/>
<path transform="translate(707,641)" d="m0 0 2 2-35 18-19 10-13 7h-2v-7l19-10 23-12 13-7z" fill="#FD0000"/>
<path transform="translate(399,642)" d="m0 0h14l19 10 27 14 9 5v7l-6-2-33-17-19-10-11-6z" fill="#FD0000"/>
<path transform="translate(327,554)" d="m0 0 17 8 22 12 23 12 4 4h-12l-29-15-22-12-4-3v-5z" fill="#FD0000"/>
<path transform="translate(779,554)" d="m0 0h2v7l-22 12-32 17h-12l4-4 27-14 22-12z" fill="#FD0000"/>
<path transform="translate(715,356)" d="m0 0h13l28 15 24 13 1 1v6l-5-1-34-18-26-14z" fill="#FD0000"/>
<path transform="translate(616,684)" d="m0 0h11l-4 4-24 12-36 19h-2v-7l27-14 19-10z" fill="#FD0000"/>
<path transform="translate(545,226)" d="m0 0 2 1-2 7-33 17-19 10h-13l5-4 39-20 19-10z" fill="#FD0000"/>
<path transform="translate(379,356)" d="m0 0h13l-3 3-31 16-22 12-8 4h-2v-7l27-14 22-12z" fill="#FD0000"/>
<path transform="translate(480,684)" d="m0 0h12l40 20 14 8v7l-19-9-23-12-19-10-5-3z" fill="#FD0000"/>
<path transform="translate(561,226)" d="m0 0 16 8 33 17 16 9v1h-13l-31-16-20-11-1-1z" fill="#FD0000"/>
<path transform="translate(404,631)" d="m0 0 40 1 24 1 1 1v5l-1 1-63-2-1-1z" fill="#FD0000"/>
<path transform="translate(328,604)" d="m0 0h11l16 8 29 15 6 4v7l-16-8-43-22-3-2z" fill="#FD0000"/>
<path transform="translate(717,308)" d="m0 0 6 2 37 19 20 11v1h-13l-37-19-13-7z" fill="#FD0000"/>
<path transform="translate(692,631)" d="m0 0h11l1 1v5l-1 1-63 2-1-1v-5l1-1z" fill="#FD0000"/>
<path transform="translate(769,604)" d="m0 0h11v2l-35 18-19 10-7 4-2-1 1-7 41-21z" fill="#FD0000"/>
<path transform="translate(483,674)" d="m0 0h40l29 1-5 6h-43l-21-1z" fill="#FD0000"/>
<path transform="translate(456,316)" d="m0 0h11l-3 3-25 13-22 12-10 5h-3v-6l18-10 23-12 7-4z" fill="#FD0000"/>
<path transform="translate(440,306)" d="m0 0h28v6l-14 1-30 1h-20l-1-5 1-1 8-1z" fill="#FD0000"/>
<path transform="translate(483,637)" d="m0 0 16 8 31 16 14 8 1 2h-11l-16-8-31-16-4-3z" fill="#FD0000"/>
<path transform="translate(700,596)" d="m0 0h3v6l-8 5-28 15-14 7h-13l4-3 23-12 22-12z" fill="#FD0000"/>
<path transform="translate(387,308)" d="m0 0h2v7l-28 15-21 11h-13l4-4 28-14 19-10z" fill="#FD0000"/>
<path transform="translate(523,264)" d="m0 0h23l1 6-5 1-59 1-1-1v-5l1-1z" fill="#FD0000"/>
<path transform="translate(561,264)" d="m0 0h23l40 1v6l-3 1-56-1-9-1z" fill="#FD0000"/>
<path transform="translate(622,638)" d="m0 0h3v6l-22 12-23 12-6 3h-11v-2l27-14 22-12z" fill="#FD0000"/>
<path transform="translate(583,674)" d="m0 0h42v6l-21 1h-43l-1-6z" fill="#FD0000"/>
<path transform="translate(639,306)" d="m0 0h26l28 1 10 1v6h-22l-29-1-13-1z" fill="#FD0000"/>
<path transform="translate(405,596)" d="m0 0 6 2 34 18 22 12v1h-12l-16-8-27-14-7-4z" fill="#FD0000"/>
<path transform="translate(639,316)" d="m0 0h12l16 8 31 16 4 3v7l-16-8-34-18-13-7z" fill="#FD0000"/>
<path transform="translate(562,275)" d="m0 0h13l29 15 20 11v7l-6-2-32-17-24-13z" fill="#FD0000"/>
<path transform="translate(531,275)" d="m0 0h13l-3 3-27 14-22 12-8 4h-2v-6l8-5 30-16z" fill="#FD0000"/>
<path transform="translate(717,345)" d="m0 0h57l-2 6h-56v-5z" fill="#FD0000"/>
<path transform="translate(335,594)" d="m0 0h56v6h-57z" fill="#FD0000"/>
<path transform="translate(333,345)" d="m0 0h57v6h-55l-2-3z" fill="#FD0000"/>
<path transform="translate(717,594)" d="m0 0h55l2 6h-57z" fill="#FD0000"/>
<path transform="translate(790,560)" d="m0 0 2 1 1 14v24l-3 2-3-1 2-7 3-5-5 1-1-6v-20z" fill="#FD0000"/>
<path transform="translate(318,344)" d="m0 0h2l-2 8-2 5 4-1 1 5v22l-6 2-1-16v-22z" fill="#FD0000"/>
<path transform="translate(553,225)" d="m0 0 4 2v28l-1 1h-6v-28z" fill="#FD0000"/>
<path transform="translate(551,689)" d="m0 0h5l1 1v27l-2 3-4-1-1-1v-28z" fill="#FD0000"/>
<path transform="translate(629,276)" d="m0 0h6v25h-7v-24z" fill="#FD0000"/>
<path transform="translate(473,644)" d="m0 0h5l1 1v24h-7v-24z" fill="#FD0000"/>
<path transform="translate(316,560)" d="m0 0 6 3v14l-1 13-6-2v-19z" fill="#FD0000"/>
<path transform="translate(786,356)" d="m0 0 5 1 1 1v20l-1 7-6-2v-13z" fill="#FD0000"/>
<path transform="translate(629,644)" d="m0 0h6v25h-6z" fill="#FD0000"/>
<path transform="translate(472,276)" d="m0 0h6v25h-6z" fill="#FD0000"/>
<path transform="translate(707,604)" d="m0 0h5l1 1 1 11v10l-1 1h-5l-1-1z" fill="#FD0000"/>
<path transform="translate(395,604)" d="m0 0h5l1 1v11l-1 11h-5l-1-1v-19z" fill="#FD0000"/>
<path transform="translate(707,319)" d="m0 0h6v21l-1 1h-5l-1-1z" fill="#FD0000"/>
<path transform="translate(393,319)" d="m0 0h6l1 1v21h-6z" fill="#FD0000"/>
<path transform="translate(315,589)" d="m0 0 3 3 2 4v5l-5-2-1-1v-8z" fill="#FD0000"/>
<path transform="translate(787,344)" d="m0 0 5 2 1 2v8l-2 1-4-8z" fill="#FD0000"/>
<path transform="translate(774,594)" d="m0 0h9l1 5-3 1-7-5z" fill="#FD0000"/>
<path transform="translate(325,594)" d="m0 0h9l-5 5-4 1-1-5z" fill="#FD0000"/>
<path transform="translate(628,304)" d="m0 0 4 2 4 5v1h-6l-2-2z" fill="#FD0000"/>
<path transform="translate(627,265)" d="m0 0 7 1 1 1v6l-4-2-4-4z" fill="#FD0000"/>
<path transform="translate(634,672)" d="m0 0 2 1-1 6-1 1h-6l2-4z" fill="#FD0000"/>
<path transform="translate(472,672)" d="m0 0 4 2 4 6h-6l-2-2z" fill="#FD0000"/>
<path transform="translate(633,633)" d="m0 0h3l-1 4-4 4h-2v-6z" fill="#FD0000"/>
<path transform="translate(780,345)" d="m0 0 3 1 1 3-1 2h-9l5-5z" fill="#FD0000"/>
<path transform="translate(325,345)" d="m0 0 8 5v1h-9l-1-4z" fill="#FD0000"/>
<path transform="translate(395,308)" d="m0 0h6l-6 8h-2v-6z" fill="#FD0000"/>
<path transform="translate(475,265)" d="m0 0h4l-2 4-4 4h-2l1-6z" fill="#FD0000"/>
<path transform="translate(712,630)" d="m0 0h2v6l-1 1h-7z" fill="#FD0000"/>
<path transform="translate(708,594)" d="m0 0h6l-2 4-5 4v-7z" fill="#FD0000"/>
<path transform="translate(706,308)" d="m0 0h6l1 1v7l-7-6z" fill="#FD0000"/>
<path transform="translate(471,634)" d="m0 0h7l1 7-4-2z" fill="#FD0000"/>
<path transform="translate(394,630)" d="m0 0 4 2 3 3v2h-6l-1-1z" fill="#FD0000"/>
<path transform="translate(394,594)" d="m0 0h6l1 1v6l-4-2-3-3z" fill="#FD0000"/>
<path transform="translate(477,304)" d="m0 0h1v7l-7 1 2-4z" fill="#FD0000"/>
<path transform="translate(706,344)" d="m0 0 4 2 3 5h-6l-1-1z" fill="#FD0000"/>
<path transform="translate(399,344)" d="m0 0h1v6l-1 1h-6z" fill="#FD0000"/>
</svg>